# xmcd
#
# Track frame offsets: 
#        150
#        37586
#        51180
#        70790
#        92812
#        113360
#        128846
#        146447
#        164972
#        186917
#
# Disc length: 2955 seconds
#
# Revision: 0
# Processed by: cddbd v1.5.2PL0 Copyright (c) Steve Scherf et al.
# Submitted via: ExactAudioCopy v0.95a5
#
DISCID=840b890a
DTITLE=Brazos Stone - Pleasurable Pain
DYEAR=2009
DGENRE=Country
TTITLE0=Pleasurable Pain
TTITLE1=Like You Did
TTITLE2=Close Distance
TTITLE3=Brazos Breeze
TTITLE4=Regret
TTITLE5=Sweet Marie
TTITLE6=The Other Three
TTITLE7=Beginning of the End
TTITLE8=Queen of Diamonds
TTITLE9=Flight of an Angel
EXTD=
EXTT0=
EXTT1=
EXTT2=
EXTT3=
EXTT4=
EXTT5=
EXTT6=
EXTT7=
EXTT8=
EXTT9=
PLAYORDER=
